PathFileType	4	(X/Y/Z)	s01c0102.trc
DataRate	CameraRate	NumFrames	NumMarkers	Units	OrigDataRate	OrigDataStartFrame	OrigNumFrames
200	200	7	48	mm	200	250	2000
Frame#	Time	racr			lacr			c7			jug			rlel			rdr			llel			ldr			s2			lic			ric			lasi			rasi			rpsi			lpsi			rgt			lgt			rth1			rth2			rth3			rth4			rlfc			rsh1			rsh2			rsh3			rsh4			rlmal			rmmal			rcal			rtoe			rmt5			lth1			lth2			lth4			lth3			llfc			lsh1			lsh2			lsh3			lsh4			llmal			lmmal			lcal			ltoe			lmt5			SBIKE			LBIKE			RBIKE			
		X1	Y1	Z1	X2	Y2	Z2	X3	Y3	Z3	X4	Y4	Z4	X5	Y5	Z5	X6	Y6	Z6	X7	Y7	Z7	X8	Y8	Z8	X9	Y9	Z9	X10	Y10	Z10	X11	Y11	Z11	X12	Y12	Z12	X13	Y13	Z13	X14	Y14	Z14	X15	Y15	Z15	X16	Y16	Z16	X17	Y17	Z17	X18	Y18	Z18	X19	Y19	Z19	X20	Y20	Z20	X21	Y21	Z21	X22	Y22	Z22	X23	Y23	Z23	X24	Y24	Z24	X25	Y25	Z25	X26	Y26	Z26	X27	Y27	Z27	X28	Y28	Z28	X29	Y29	Z29	X30	Y30	Z30	X31	Y31	Z31	X32	Y32	Z32	X33	Y33	Z33	X34	Y34	Z34	X35	Y35	Z35	X36	Y36	Z36	X37	Y37	Z37	X38	Y38	Z38	X39	Y39	Z39	X40	Y40	Z40	X41	Y41	Z41	X42	Y42	Z42	X43	Y43	Z43	X44	Y44	Z44	X45	Y45	Z45	X46	Y46	Z46	X47	Y47	Z47	X48	Y48	Z48	
250	1.2500	491.881592	1310.389648	-141.298019	467.265472	1318.184814	-441.361847	422.816437	1393.621948	-282.850494	435.124176	1224.710449	-283.034821	567.351074	1055.587891	-27.756159	737.781433	855.106567	-65.633537	520.359497	1044.619019	-544.187378	0.000000	0.000000	-0.000000	-104.503075	1186.545044	-229.578247	98.541115	1228.723145	-444.614349	69.811508	1176.576782	-89.762840	92.139656	1152.825562	-420.764893	88.302986	1129.952148	-114.241867	-68.481644	1222.347534	-178.219208	-78.759468	1232.840576	-283.132568	14.136901	1059.580444	-55.782516	9.832460	1079.905396	-438.934570	109.329338	966.624817	-50.598766	167.012344	908.108459	-62.613991	224.829193	840.415771	-76.561081	203.750092	944.002563	-81.540421	258.300140	731.807739	-101.872528	185.096375	638.863708	-65.529488	141.223007	566.188721	-68.208557	86.822243	495.948425	-78.625778	176.779648	543.609741	-111.184029	3.319768	394.258118	-97.852058	49.555183	392.902069	-176.055038	-45.763878	379.946716	-157.095200	191.694183	243.574036	-132.773621	82.971352	263.407410	-71.691124	103.357529	989.718994	-434.805450	186.657684	960.261841	-428.128876	205.901184	1010.734680	-420.885040	262.316162	923.946960	-408.561981	349.949371	851.430115	-386.214752	307.599335	745.689575	-420.121826	294.645782	660.025391	-417.367371	279.359070	575.857849	-408.614624	347.438568	653.132507	-387.262390	252.760208	450.782166	-400.380280	278.780487	461.988037	-313.229858	206.459839	403.279663	-359.986603	482.148010	437.491211	-374.646027	382.094299	395.997101	-439.374573	-222.703995	892.685547	-250.221115	-12.105469	84.369019	-453.757477	-20.051563	80.829834	-53.631096	
251	1.2550	491.928558	1310.387085	-141.379257	467.195709	1317.921875	-441.520721	422.821198	1393.623779	-282.995209	435.027649	1224.672974	-282.965210	567.484375	1055.652222	-27.846268	737.783875	855.111816	-65.622513	520.276306	1044.434326	-544.277832	0.000000	0.000000	-0.000000	-104.726974	1187.220337	-229.943405	98.902069	1228.415039	-444.711487	69.280663	1177.368774	-89.818092	92.139709	1153.166016	-420.884613	87.890617	1130.662476	-114.226456	-68.784706	1223.034546	-178.597549	-78.861893	1233.426880	-283.487946	13.566269	1060.522705	-55.829113	9.807250	1080.122681	-438.972992	109.082642	967.755798	-50.413197	166.966400	909.477295	-62.338917	225.018204	841.942871	-76.237129	203.653534	945.438721	-81.231598	258.812866	733.482971	-101.463036	185.294754	640.817017	-65.249825	141.118378	568.304749	-67.965752	86.409866	498.373596	-78.414482	176.432541	545.493652	-110.919373	2.552536	397.051483	-97.756966	48.337875	395.389130	-176.018631	-46.583118	382.769714	-157.030945	190.489731	246.014771	-132.890137	81.883957	266.042847	-71.708206	102.978783	989.532593	-434.891327	186.149399	959.644836	-428.086853	205.576645	1010.038818	-420.713257	261.586365	922.994995	-408.359344	348.960175	849.975586	-385.921021	307.369995	743.864441	-420.060577	294.871338	658.241333	-417.314087	280.133331	573.956116	-408.599243	347.699158	651.595520	-387.045532	254.007523	448.706665	-400.435699	279.910156	459.769440	-313.315399	207.795959	401.301575	-360.050232	483.588959	434.568329	-374.532410	383.446259	393.426727	-439.302094	-222.709930	892.682251	-250.213272	-12.095750	84.355042	-453.748077	-20.057135	80.798286	-53.638062	
252	1.2600	491.916901	1310.388306	-141.456284	467.106934	1317.681519	-441.616852	422.839813	1393.620605	-283.146454	434.972595	1224.572388	-282.921600	567.614502	1055.750854	-27.926262	737.748657	855.102966	-65.593468	520.196167	1044.283447	-544.413208	0.000000	0.000000	-0.000000	-104.982040	1187.858765	-230.411942	99.262482	1228.094116	-444.808899	68.682686	1178.144043	-89.895370	92.154335	1153.474487	-420.978149	87.353279	1131.455566	-114.243164	-69.115326	1223.793335	-179.002960	-78.859749	1233.915283	-283.913147	12.888726	1061.420532	-56.096642	9.810306	1080.305298	-439.008209	108.833633	968.878845	-50.304070	166.931183	910.750122	-62.046227	225.256531	843.433228	-75.903198	203.535156	946.898254	-80.910568	259.379333	735.259583	-101.038857	185.536957	642.813721	-64.921463	140.980438	570.456177	-67.730370	85.968178	500.782410	-78.233253	175.975891	547.303040	-110.589226	1.763201	399.856873	-97.562820	46.905281	397.876404	-175.971329	-47.431477	385.726257	-156.936493	189.450363	248.545715	-132.959213	80.896744	268.702728	-71.666008	102.382660	989.443359	-434.863251	185.528748	959.007080	-428.049316	205.180313	1009.245728	-420.541626	260.768524	921.965454	-408.151703	347.944031	848.446960	-385.613770	307.085266	742.033997	-420.047485	295.045837	656.328979	-417.261322	280.868439	571.952759	-408.572388	347.887451	650.073853	-386.926147	255.250504	446.509247	-400.523438	281.019379	457.541351	-313.440643	206.402878	401.183838	-362.064362	484.983063	431.540527	-374.450836	384.718689	390.826019	-439.240387	-222.715408	892.680969	-250.208832	-12.100856	84.377480	-453.749817	-20.056351	80.833153	-53.626507	
253	1.2650	491.914520	1310.384277	-141.572754	467.011353	1317.521240	-441.668213	422.846893	1393.626099	-283.279663	434.890442	1224.526978	-282.873199	567.734436	1055.840820	-28.038111	737.740601	855.116760	-65.585724	520.114319	1044.167236	-544.534485	0.000000	0.000000	-0.000000	-105.151367	1188.451538	-230.859024	99.621933	1227.760620	-444.906433	68.140144	1179.005249	-89.930885	92.206284	1153.727783	-421.110657	86.824745	1132.207153	-114.301750	-69.426582	1224.472534	-179.450363	-78.913750	1234.382324	-284.359558	12.375840	1062.387573	-56.148525	9.785773	1080.489258	-439.068207	108.577065	970.026184	-50.075787	166.937012	912.059692	-61.743187	225.536697	844.956360	-75.493675	203.425598	948.330627	-80.561836	259.954559	737.016541	-100.611702	185.798477	644.857971	-64.578300	140.938644	572.719727	-67.476791	85.577988	503.272369	-78.075920	175.619431	549.162048	-110.225143	1.072978	402.722107	-97.408966	45.246185	400.141205	-175.822922	-48.213081	388.639618	-156.686676	188.392776	251.070358	-133.081879	79.861259	271.464050	-71.583748	101.829826	989.108765	-434.835571	184.866241	958.293457	-428.072083	204.777756	1008.430725	-420.452606	259.848083	920.834351	-407.893158	346.859894	846.851013	-385.345428	306.707397	740.197937	-420.058990	295.189453	654.378906	-417.181641	281.551727	569.968506	-408.540680	347.966339	648.497559	-386.828125	256.411499	444.219788	-400.525482	282.067596	455.380920	-313.607330	210.496735	396.999969	-359.371735	486.451691	428.473755	-374.313171	385.999207	388.204315	-439.186127	-222.719986	892.680481	-250.206146	-12.111658	84.366066	-453.748077	-20.067663	80.810265	-53.641621	
254	1.2700	491.923889	1310.363525	-141.615799	466.923431	1317.376343	-441.644897	422.864990	1393.630371	-283.395660	434.797119	1224.506226	-282.838928	567.806274	1055.904053	-28.123627	737.695862	855.158264	-65.536057	520.051270	1044.096680	-544.656433	0.000000	0.000000	-0.000000	-105.338150	1189.072632	-231.335434	99.979980	1227.414673	-445.003998	67.520897	1179.785767	-90.022957	92.240761	1153.964478	-421.264771	86.333076	1133.020020	-114.311546	-69.717651	1225.202515	-179.959610	-78.985802	1234.893433	-284.906555	11.763904	1063.330444	-56.235722	9.781209	1080.598877	-439.149841	108.351341	971.100891	-49.905197	166.877670	913.459412	-61.387306	225.743942	846.524719	-75.104530	203.330780	949.878174	-80.207123	260.643799	738.853821	-100.137222	186.077057	646.872131	-64.210304	140.911316	574.994812	-67.142303	85.246712	505.785828	-77.855850	175.410049	551.117065	-109.818710	0.397601	405.624390	-97.269249	43.631622	402.520721	-175.712158	-48.989349	391.800568	-156.739243	187.327286	253.687943	-133.145584	78.909813	274.293182	-71.522949	101.309700	988.648132	-434.841766	184.203598	957.423584	-427.968750	204.408524	1007.505798	-420.265015	258.929749	919.663940	-407.611084	345.729767	845.160034	-385.086945	306.276886	738.224854	-420.025116	295.293365	652.343567	-417.120422	282.154877	567.826904	-408.514832	348.033081	646.786438	-386.721588	257.542206	442.012390	-400.522247	283.248291	453.336609	-313.718750	212.064438	394.732697	-358.876648	487.766296	425.350037	-374.261688	387.269958	385.476624	-439.105103	-222.723068	892.680298	-250.204849	-12.118887	84.376503	-453.738586	-20.078844	80.826698	-53.623417	
255	1.2750	491.902435	1310.397217	-141.645432	466.865814	1317.260010	-441.657806	422.895172	1393.640381	-283.504364	434.706116	1224.475464	-282.817413	567.806824	1055.936523	-28.187387	737.645935	855.177124	-65.478973	520.001831	1044.029663	-544.740662	0.000000	0.000000	-0.000000	-105.524628	1189.573120	-231.913498	100.336205	1227.056763	-445.101471	66.895477	1180.638306	-90.161278	92.326691	1154.153442	-421.428864	85.863487	1133.838501	-114.359016	-69.976418	1225.717407	-180.521149	-79.022316	1235.280518	-285.443146	11.151907	1064.255127	-56.363625	9.797710	1080.631836	-439.202454	108.109093	972.267578	-49.736053	166.918274	914.770508	-61.056046	226.027023	848.054199	-74.645866	203.305893	951.307983	-79.841232	261.323090	740.629700	-99.612930	186.422424	648.983032	-63.784889	140.964081	577.313904	-66.770515	84.964882	508.352478	-77.664116	175.314636	553.140503	-109.313881	-0.316423	408.650269	-97.139900	52.150444	408.967926	-172.976089	-49.390156	395.384247	-156.324249	186.348129	256.440094	-133.151062	78.000076	277.132019	-71.526207	100.811684	988.180725	-434.915436	183.595291	956.534729	-427.903076	203.958649	1006.445190	-420.200867	258.010010	918.269531	-407.313354	344.555603	843.406677	-384.842651	305.838867	736.210510	-420.000671	295.409637	650.214050	-417.048248	282.678375	565.616943	-408.503235	348.112244	645.005615	-386.603241	258.570679	439.688721	-400.495789	284.422089	451.324554	-313.968994	213.301926	392.647644	-358.881561	489.234344	422.125183	-374.091309	388.483856	382.710297	-439.045593	-222.724655	892.680847	-250.207077	-12.109988	84.363869	-453.737213	-20.070404	80.795547	-53.638382	
256	1.2800	491.940216	1310.404541	-141.698257	466.834717	1317.169312	-441.620178	422.934082	1393.661377	-283.586212	434.613953	1224.451538	-282.794220	567.690125	1055.966797	-28.142948	737.546814	855.210327	-65.394211	519.954407	1043.996704	-544.845520	0.000000	0.000000	-0.000000	-105.675613	1190.151367	-232.515854	100.690186	1226.687012	-445.198792	66.366486	1181.418701	-90.242172	92.449486	1154.326050	-421.629089	85.382950	1134.544678	-114.391312	-70.270576	1226.372559	-181.113556	-78.975937	1235.678833	-286.032227	10.607547	1065.207275	-56.426994	9.792538	1080.609863	-439.309753	107.858017	973.393921	-49.533539	166.977127	916.129456	-60.682774	226.392319	849.646179	-74.158127	203.259430	952.802368	-79.424278	262.088654	742.542114	-99.073784	186.899857	651.088806	-63.336330	141.033066	579.630188	-66.450775	84.681137	511.003876	-77.389374	176.447189	556.318665	-109.176819	-0.932645	411.726379	-97.049538	48.113922	411.316406	-174.094269	-50.111279	398.527435	-156.357346	185.339050	259.211212	-133.211090	77.029343	280.118347	-71.502647	100.302704	987.632202	-434.980865	182.880844	955.494995	-427.839508	203.548141	1005.324524	-420.174377	257.065887	916.854736	-407.157867	343.349640	841.561218	-384.598236	305.380310	734.079651	-419.961761	295.440308	648.039307	-417.026398	283.283691	563.330261	-408.499847	348.336365	643.040161	-386.406189	259.710724	437.362701	-400.495209	285.656647	449.102203	-314.185455	214.513199	390.488678	-358.948639	490.568268	418.755463	-374.021423	389.678619	379.831604	-438.992432	-222.723297	892.683044	-250.210526	-12.111984	84.370522	-453.726501	-20.085567	80.812920	-53.618641	
